# xmcd
#
# Track frame offsets: 
#        150
#        14692
#        27582
#        47702
#        63187
#        72980
#        86467
#        96550
#        116490
#        126502
#        139545
#        150452
#        163842
#        175097
#        185940
#
# Disc length: 2717 seconds
#
# Revision: 2
# Processed by: cddbd v1.5.2PL0 Copyright (c) Steve Scherf et al.
# Submitted via: ExactAudioCopyFreeDBPlugin 1.0
#
DISCID=d70a9b0f
DTITLE=Varios - Mexico - Rancheras
DYEAR=1900
DGENRE=Latin
TTITLE0=Mexico Lindo y Querido
TTITLE1=Mi Ranchito
TTITLE2=Tristes Recuerdos
TTITLE3=Cucurrucucu Paloma
TTITLE4=Los Dos Amantes
TTITLE5=La Ley del Monte
TTITLE6=El Capiro
TTITLE7=Dos Arbolitos
TTITLE8=Los Laureles
TTITLE9=Si Acaso Vuelves
TTITLE10=El Chubasco
TTITLE11=De Que Manera Te Olvido
TTITLE12=La Puerta Negra
TTITLE13=El Ausente
TTITLE14=Por Tu Maldito Amor
EXTD=
EXTT0=
EXTT1=
EXTT2=
EXTT3=
EXTT4=
EXTT5=
EXTT6=
EXTT7=
EXTT8=
EXTT9=
EXTT10=
EXTT11=
EXTT12=
EXTT13=
EXTT14=
PLAYORDER=
